<?xml version="1.0" encoding="UTF-8" standalone="no"?>
<svg
   xmlns:dc="http://purl.org/dc/elements/1.1/"
   xmlns:cc="http://creativecommons.org/ns#"
   xmlns:rdf="http://www.w3.org/1999/02/22-rdf-syntax-ns#"
   xmlns:svg="http://www.w3.org/2000/svg"
   xmlns="http://www.w3.org/2000/svg"
   version="1.1"
   id="svg2"
   xml:space="preserve"
   width="318.336"
   height="318.62399"
   viewBox="0 0 318.336 318.62399"><metadata
     id="metadata8"><rdf:RDF><cc:Work
         rdf:about=""><dc:format>image/svg+xml</dc:format><dc:type
           rdf:resource="http://purl.org/dc/dcmitype/StillImage" /></cc:Work></rdf:RDF></metadata><defs
     id="defs6"><clipPath
       clipPathUnits="userSpaceOnUse"
       id="clipPath22"><path
         d="m 78.3754,122.2832 c -9.4983,1.2192 -10.7087,15.6325 -8.0552,23.0066 4.8781,13.5552 20.4364,20.6078 32.2824,27.6942 -1.8185,-6.9529 -3.6369,-13.9054 -5.4553,-20.8579 7.4341,-2.8347 14.868,-5.669 22.3021,-8.5037 -11.5721,0.7951 -22.4799,0.7529 -30.5475,-2.8698 -7.6357,-3.4288 -14.2161,-9.3702 -10.5265,-18.4694"
         clip-rule="evenodd"
         id="path20" /></clipPath><linearGradient
       x1="69.089996"
       y1="147.63"
       x2="119.45"
       y2="147.63"
       gradientUnits="userSpaceOnUse"
       spreadMethod="pad"
       id="linearGradient28"><stop
         style="stop-opacity:1;stop-color:#3c60b5"
         offset="0"
         id="stop24" /><stop
         style="stop-opacity:1;stop-color:#75d1dc"
         offset="1"
         id="stop26" /></linearGradient><clipPath
       clipPathUnits="userSpaceOnUse"
       id="clipPath40"><path
         d="m 88.6297,171.4918 c 9.629,7.1048 21.8982,13.03 34.2496,15.929 11.5294,2.7063 23.1197,2.6323 33.0013,2.3154 -19.5115,-6.6668 -37.9466,-15.2397 -52.8001,-30.1576 0.9887,5.537 1.9774,11.0742 2.9661,16.6114 -5.2795,-0.4091 -11.1404,-2.0963 -17.4169,-4.6982"
         clip-rule="evenodd"
         id="path38" /></clipPath><linearGradient
       x1="88.629997"
       y1="174.73"
       x2="155.88"
       y2="174.73"
       gradientUnits="userSpaceOnUse"
       spreadMethod="pad"
       id="linearGradient46"><stop
         style="stop-opacity:1;stop-color:#3c60b5"
         offset="0"
         id="stop42" /><stop
         style="stop-opacity:1;stop-color:#75d1dc"
         offset="1"
         id="stop44" /></linearGradient><clipPath
       clipPathUnits="userSpaceOnUse"
       id="clipPath58"><path
         d="m 103.2531,153.6506 c 27.146,28.7061 88.7054,54.2083 110.6033,1.902 l 0.0482,-0.1267 c -18.1689,18.6775 -48.899,21.221 -74.3241,8.5082 -12.85,3.147 -17.7758,-5.8751 -27.6089,-13.4133 -2.9063,1.0432 -5.8124,2.0866 -8.7185,3.1298"
         clip-rule="evenodd"
         id="path56" /></clipPath><linearGradient
       x1="103.25"
       y1="168.17"
       x2="213.89999"
       y2="168.17"
       gradientUnits="userSpaceOnUse"
       spreadMethod="pad"
       id="linearGradient64"><stop
         style="stop-opacity:1;stop-color:#3c60b5"
         offset="0"
         id="stop60" /><stop
         style="stop-opacity:1;stop-color:#75d1dc"
         offset="1"
         id="stop62" /></linearGradient><clipPath
       clipPathUnits="userSpaceOnUse"
       id="clipPath76"><path
         d="m 116.1573,149.4632 6.7595,5.6183 c 1.4178,-1.2087 3.2564,-1.9386 5.2656,-1.9386 3.2423,0 6.0403,1.9 7.3429,4.6471 1.7186,0.4085 3.4373,1.5168 6.5979,4.2704 39.5308,10.9063 80.4886,-4.5159 78.0933,-49.9411 -0.003,-0.0453 -0.005,-0.091 -0.009,-0.1361 -19.0397,35.6976 -36.4209,48.5181 -75.5138,43.9073 -9.0615,-9.8955 -15.0029,-8.212 -28.5366,-6.4273"
         clip-rule="evenodd"
         id="path74" /></clipPath><linearGradient
       x1="116.16"
       y1="138.7"
       x2="220.32001"
       y2="138.7"
       gradientUnits="userSpaceOnUse"
       spreadMethod="pad"
       id="linearGradient82"><stop
         style="stop-opacity:1;stop-color:#3c60b5"
         offset="0"
         id="stop78" /><stop
         style="stop-opacity:1;stop-color:#75d1dc"
         offset="1"
         id="stop80" /></linearGradient><clipPath
       clipPathUnits="userSpaceOnUse"
       id="clipPath94"><path
         d="m 125.7979,144.5786 c 12.6337,0 13.6885,-1.1929 22.881,7.3269 38.7847,0.5409 55.4462,-11.5049 70.2938,-49.93 l -6e-4,-0.004 c -16.7859,19.8457 -35.7392,31.3198 -64.8261,37.4466 -10.3351,2.177 -17.2122,0.7092 -28.3481,5.1602"
         clip-rule="evenodd"
         id="path92" /></clipPath><linearGradient
       x1="125.8"
       y1="126.95"
       x2="218.97"
       y2="126.95"
       gradientUnits="userSpaceOnUse"
       spreadMethod="pad"
       id="linearGradient100"><stop
         style="stop-opacity:1;stop-color:#3c60b5"
         offset="0"
         id="stop96" /><stop
         style="stop-opacity:1;stop-color:#75d1dc"
         offset="1"
         id="stop98" /></linearGradient><clipPath
       clipPathUnits="userSpaceOnUse"
       id="clipPath112"><path
         d="M 99.6599,133.7409 C 102.5796,102.5957 81.1035,66.9932 41.2563,77.8357 68.0403,54.3753 118.038,87.7924 99.6599,133.7409"
         clip-rule="evenodd"
         id="path110" /></clipPath><linearGradient
       x1="41.259998"
       y1="101.94"
       x2="103.62"
       y2="101.94"
       gradientUnits="userSpaceOnUse"
       spreadMethod="pad"
       id="linearGradient118"><stop
         style="stop-opacity:1;stop-color:#3c60b5"
         offset="0"
         id="stop114" /><stop
         style="stop-opacity:1;stop-color:#75d1dc"
         offset="1"
         id="stop116" /></linearGradient><clipPath
       clipPathUnits="userSpaceOnUse"
       id="clipPath130"><path
         d="m 94.3815,81.3464 c -21.3976,-19.2541 -36.536,-18.349 -63.472,-11.272 2.0149,-3.5963 4.2427,-7.0568 6.6668,-10.3651 6.236,-2.6757 20.8035,-4.0896 33.9313,-2.8007 -7.4432,-5.0045 -17.8149,-3.465 -30.8764,-1.1602 0.0562,-0.0694 0.1114,-0.1395 0.1679,-0.2086 18.4991,-22.4618 49.8852,3.8735 53.5824,25.8066"
         clip-rule="evenodd"
         id="path128" /></clipPath><linearGradient
       x1="30.91"
       y1="64.160004"
       x2="94.379997"
       y2="64.160004"
       gradientUnits="userSpaceOnUse"
       spreadMethod="pad"
       id="linearGradient136"><stop
         style="stop-opacity:1;stop-color:#3c60b5"
         offset="0"
         id="stop132" /><stop
         style="stop-opacity:1;stop-color:#75d1dc"
         offset="1"
         id="stop134" /></linearGradient><clipPath
       clipPathUnits="userSpaceOnUse"
       id="clipPath148"><path
         d="m 52.7808,43.1561 c 26.087,-4.2653 37.8017,17.6317 45.4615,38.2663 7.0622,19.0247 11.9976,37.3328 7.8755,40.403 7.2323,5.9542 12.8761,5.3048 11.7312,-0.6517 C 111.2562,102.274 79.6558,39.6663 93.6473,21.5291 84.1955,23.9953 75.2814,27.7931 67.1176,32.7101 77.4612,35.9705 86.3668,44.132 88.3037,50.5689 78.7796,41.9377 66.4359,34.2717 60.3819,37.1415 c -2.6305,1.8845 -5.167,3.8923 -7.6011,6.0146"
         clip-rule="evenodd"
         id="path146" /></clipPath><linearGradient
       x1="52.779999"
       y1="73.75"
       x2="118"
       y2="73.75"
       gradientUnits="userSpaceOnUse"
       spreadMethod="pad"
       id="linearGradient154"><stop
         style="stop-opacity:1;stop-color:#3c60b5"
         offset="0"
         id="stop150" /><stop
         style="stop-opacity:1;stop-color:#75d1dc"
         offset="1"
         id="stop152" /></linearGradient><clipPath
       clipPathUnits="userSpaceOnUse"
       id="clipPath166"><path
         d="m 96.9897,20.7204 c -1.6206,6.8431 -3.9478,20.365 -1.91,27.9199 4.8033,17.8063 19.586,53.0736 26.4657,72.3554 1.3878,3.8903 2.7683,8.7509 -1.9645,10.1668 -4.5782,1.3697 -12.1765,-2.471 -15.326,-0.8468 -1.1464,0.5914 -1.3567,2.431 -2.3585,4.4354 -1.0695,2.1399 -2.0761,4.373 -2.3924,5.0301 3.7655,-1.194 7.5311,0 11.2969,0 13.0142,0 13.7937,0.5652 26.7211,-2.3896 2.6045,-0.3722 5.2089,-0.7441 7.8134,-1.1163 6.2306,-0.8901 8.5592,-0.267 18.129,-2.1169 8.7925,-2.2691 15.0069,-5.004 22.9379,-9.1497 -7.9829,2.0781 -16.4358,2.0126 -24.8011,1.6637 -18.0964,-0.7549 -27.2475,4.0725 -35.9779,-15.3768 -5.8062,-12.934 -10.5543,-26.8396 -15.2839,-41.114 -3.0115,-9.0887 -8.9365,-18.1882 -9.2537,-27.5613 -0.1919,-5.6667 2.3672,-16.6249 3.9612,-23.366 -2.7216,0.3836 -5.4094,0.8714 -8.0572,1.4661"
         clip-rule="evenodd"
         id="path164" /></clipPath><linearGradient
       x1="94.279999"
       y1="79.540001"
       x2="186.39999"
       y2="79.540001"
       gradientUnits="userSpaceOnUse"
       spreadMethod="pad"
       id="linearGradient172"><stop
         style="stop-opacity:1;stop-color:#3c60b5"
         offset="0"
         id="stop168" /><stop
         style="stop-opacity:1;stop-color:#75d1dc"
         offset="1"
         id="stop170" /></linearGradient><clipPath
       clipPathUnits="userSpaceOnUse"
       id="clipPath184"><path
         d="m 108.3991,18.8371 c -0.2588,1.165 -0.6001,2.6339 -0.646,2.9993 -2.0024,15.9049 -1.8181,19.5256 2.8304,36.2605 4.3084,10.0066 7.6856,18.5423 11.0795,28.8938 8.9232,26.769 14.3203,34.8307 23.3708,36.6129 6.6991,1.3192 14.9366,-1.1772 30.5062,-0.1157 -27.184,-17.475 -27.9922,5.5817 -42.3165,-23.0496 -4.8546,-9.7036 -7.9149,-17.837 -9.6052,-28.6549 8.1151,5.9018 17.218,15.0959 27.5902,15.6416 10.5384,24.4298 5.5942,20.6257 27.1556,35.1938 -10.921,-19.4153 -19.6041,-27.3302 -25.2005,-50.8354 -6.308,-16.9528 -15.3712,-30.5926 -13.915,-48.8239 0.0306,-0.383 0.1783,-1.5389 0.3262,-2.6654 -2.3541,-0.4794 -4.7384,-0.8751 -7.1489,-1.1883 -0.5522,8.4158 0.1077,16.7916 2.0624,23.6591 3.3359,11.7195 9.8507,17.5827 13.4615,35.536 -10.2988,-4.5774 -16.899,-9.1917 -24.6501,-15.6385 -6.1248,-5.0939 -8.3973,-8.3835 -10.4729,-16.4446 -2.0423,-7.9322 -1.0593,-15.4191 0.7132,-24.5903 0.099,-0.5114 0.4513,-1.9647 0.7589,-3.2499 -1.9817,0.0972 -3.9487,0.2511 -5.8998,0.4595"
         clip-rule="evenodd"
         id="path182" /></clipPath><linearGradient
       x1="106.54"
       y1="71.190002"
       x2="178.36"
       y2="71.190002"
       gradientUnits="userSpaceOnUse"
       spreadMethod="pad"
       id="linearGradient190"><stop
         style="stop-opacity:1;stop-color:#3c60b5"
         offset="0"
         id="stop186" /><stop
         style="stop-opacity:1;stop-color:#75d1dc"
         offset="1"
         id="stop188" /></linearGradient><clipPath
       clipPathUnits="userSpaceOnUse"
       id="clipPath202"><path
         d="m 118.7283,18.2619 c -3.1176,23.836 1.6325,34.7939 21.846,50.1429 -8.5623,-15.4672 -14.3801,-28.6395 -13.8563,-46.0726 0.019,-0.6353 0.0695,-2.3392 0.1233,-3.7953 -2.501,-0.1851 -5.0264,-0.2818 -7.5747,-0.2818 -0.18,0 -0.3586,0.006 -0.5383,0.0068"
         clip-rule="evenodd"
         id="path200" /></clipPath><linearGradient
       x1="117.85"
       y1="43.330002"
       x2="140.57001"
       y2="43.330002"
       gradientUnits="userSpaceOnUse"
       spreadMethod="pad"
       id="linearGradient208"><stop
         style="stop-opacity:1;stop-color:#3c60b5"
         offset="0"
         id="stop204" /><stop
         style="stop-opacity:1;stop-color:#75d1dc"
         offset="1"
         id="stop206" /></linearGradient><clipPath
       clipPathUnits="userSpaceOnUse"
       id="clipPath220"><path
         d="m 142.7151,20.9908 c 1.3529,7.0104 2.4168,16.4909 3.8877,21.3968 3.9152,13.0572 9.9983,19.4051 14.3815,39.3891 3.9195,15.1526 13.9023,22.8076 17.8144,36.9317 2.1724,-0.5068 4.9921,-1.2296 7.1645,-1.7365 -1.4969,-6.4916 0.0848,-13.1385 2.3457,-20.6407 2.5019,-8.3001 2.6362,-12.6227 2.1725,-21.0475 -0.1942,-3.0099 -1.8513,-8.8288 -1.9318,-12.6601 -0.0811,-3.8628 2.2734,-5.1821 5.5046,-1.7088 4.5706,4.9133 10.9417,29.8684 10.3581,37.6016 -0.6387,8.4645 -8.1769,21.3877 -22.3079,22.5159 12.6712,3.0586 20.4228,-5.9848 26.1808,-15.6217 6.7088,-11.2278 2.3738,-31.474 -8.2803,-46.9817 -2.9928,-3.9521 -6.2696,-7.6768 -9.799,-11.1453 -4.6199,-4.0479 -9.8142,-7.1413 -15.4049,-8.7449 3.897,8.1332 4.3942,14.04 6.548,22.7982 0.5684,5.1148 3.9107,21.8872 0.9451,25.0348 -3.1731,3.3678 -10.5307,0.174 -13.4133,-5.1994 -2.1002,-4.7256 -3.6062,-12.0662 -6.3153,-18.9087 -2.9812,-7.5306 -7.1572,-14.6557 -9.1207,-21.5793 -1.5806,-5.5721 -1.8369,-11.8931 -3.3755,-17.6503 -2.4135,-0.7701 -4.8657,-1.4527 -7.3542,-2.0432"
         clip-rule="evenodd"
         id="path218" /></clipPath><linearGradient
       x1="142.72"
       y1="71.309998"
       x2="211.49001"
       y2="71.309998"
       gradientUnits="userSpaceOnUse"
       spreadMethod="pad"
       id="linearGradient226"><stop
         style="stop-opacity:1;stop-color:#3c60b5"
         offset="0"
         id="stop222" /><stop
         style="stop-opacity:1;stop-color:#75d1dc"
         offset="1"
         id="stop224" /></linearGradient><clipPath
       clipPathUnits="userSpaceOnUse"
       id="clipPath238"><path
         d="m 153.0995,24.0557 c 5.3229,6.2537 5.5176,21.2113 11.1671,30.9685 3.1994,5.5252 5.4161,13.1181 7.5795,18.3719 0.47,1.1412 3.7489,12.1203 5.8627,6.4678 3.2935,-8.8064 -1.7451,-21.8064 -5.6577,-31.7909 -1.8337,-4.6791 -6.092,-12.416 2.6833,-13.2712 -6.7011,-4.3982 -13.9541,-8.0226 -21.6349,-10.7461"
         clip-rule="evenodd"
         id="path236" /></clipPath><linearGradient
       x1="153.10001"
       y1="52.759998"
       x2="178.77"
       y2="52.759998"
       gradientUnits="userSpaceOnUse"
       spreadMethod="pad"
       id="linearGradient244"><stop
         style="stop-opacity:1;stop-color:#3c60b5"
         offset="0"
         id="stop240" /><stop
         style="stop-opacity:1;stop-color:#75d1dc"
         offset="1"
         id="stop242" /></linearGradient><clipPath
       clipPathUnits="userSpaceOnUse"
       id="clipPath256"><path
         d="m 135.6137,164.5486 c 0.4442,-1.004 0.6914,-2.1143 0.6914,-3.2828 0,-4.4861 -3.6366,-8.1229 -8.1227,-8.1229 -3.3619,0 -6.2467,2.0426 -7.4815,4.9544 0.358,0.3135 0.7149,0.621 1.0718,0.9209 0.9278,-2.6458 3.4469,-4.5433 6.4097,-4.5433 3.7505,0 6.7907,3.0404 6.7907,6.7909 0,1.1996 -0.3116,2.3264 -0.8575,3.3047 0.4867,0.0138 0.9856,0.007 1.4981,-0.0219"
         clip-rule="evenodd"
         id="path254" /></clipPath><linearGradient
       x1="120.7"
       y1="158.86"
       x2="136.31"
       y2="158.86"
       gradientUnits="userSpaceOnUse"
       spreadMethod="pad"
       id="linearGradient262"><stop
         style="stop-opacity:1;stop-color:#3c60b5"
         offset="0"
         id="stop258" /><stop
         style="stop-opacity:1;stop-color:#75d1dc"
         offset="1"
         id="stop260" /></linearGradient><clipPath
       clipPathUnits="userSpaceOnUse"
       id="clipPath274"><path
         d="m 132.2084,164.4032 c 0.6753,-0.8657 1.0778,-1.9545 1.0778,-3.1374 0,-2.819 -2.285,-5.104 -5.1038,-5.104 -2.4432,0 -4.485,1.7166 -4.9861,4.0093 2.7442,2.1268 5.5757,3.7213 9.0121,4.2321"
         clip-rule="evenodd"
         id="path272" /></clipPath><linearGradient
       x1="123.2"
       y1="160.28"
       x2="133.28999"
       y2="160.28"
       gradientUnits="userSpaceOnUse"
       spreadMethod="pad"
       id="linearGradient280"><stop
         style="stop-opacity:1;stop-color:#3c60b5"
         offset="0"
         id="stop276" /><stop
         style="stop-opacity:1;stop-color:#75d1dc"
         offset="1"
         id="stop278" /></linearGradient><clipPath
       clipPathUnits="userSpaceOnUse"
       id="clipPath292"><path
         d="m 119.2666,220.6902 c 33.8663,0 63.8441,-16.6357 82.218,-42.1778 -6.1568,5.2177 -13.2256,8.1578 -20.7394,9.3104 -16.2878,14.6596 -37.8397,23.5845 -61.4786,23.5845 -50.7742,0 -91.9347,-41.1605 -91.9347,-91.9346 0,-17.4564 4.8654,-33.776 13.3135,-47.6776 -3.7168,0.6976 -7.7193,1.6463 -12.115,2.7887 -6.7056,13.5283 -10.4814,28.7665 -10.4814,44.8889 0,55.9009 45.3167,101.2175 101.2176,101.2175"
         clip-rule="evenodd"
         id="path290" /></clipPath><linearGradient
       x1="18.049999"
       y1="146.24001"
       x2="201.48"
       y2="146.24001"
       gradientUnits="userSpaceOnUse"
       spreadMethod="pad"
       id="linearGradient298"><stop
         style="stop-opacity:1;stop-color:#3c60b5"
         offset="0"
         id="stop294" /><stop
         style="stop-opacity:1;stop-color:#75d1dc"
         offset="1"
         id="stop296" /></linearGradient></defs><g
     id="g10"
     transform="matrix(1.3333333,0,0,-1.3333333,0,318.624)"><g
       id="g12"><g
         id="g14"><g
           id="g16"><g
             id="g18"
             clip-path="url(#clipPath22)"><path
               d="m 78.3754,122.2832 c -9.4983,1.2192 -10.7087,15.6325 -8.0552,23.0066 4.8781,13.5552 20.4364,20.6078 32.2824,27.6942 -1.8185,-6.9529 -3.6369,-13.9054 -5.4553,-20.8579 7.4341,-2.8347 14.868,-5.669 22.3021,-8.5037 -11.5721,0.7951 -22.4799,0.7529 -30.5475,-2.8698 -7.6357,-3.4288 -14.2161,-9.3702 -10.5265,-18.4694"
               style="fill:url(#linearGradient28);fill-rule:evenodd;stroke:none"
               id="path30" /></g></g><path
           d="m 78.3754,122.2832 c -9.4983,1.2192 -10.7087,15.6325 -8.0552,23.0066 4.8781,13.5552 20.4364,20.6078 32.2824,27.6942 -1.8185,-6.9529 -3.6369,-13.9054 -5.4553,-20.8579 7.4341,-2.8347 14.868,-5.669 22.3021,-8.5037 -11.5721,0.7951 -22.4799,0.7529 -30.5475,-2.8698 -7.6357,-3.4288 -14.2161,-9.3702 -10.5265,-18.4694 z"
           style="fill:none;stroke:#00adef;stroke-width:0.5;stroke-linecap:butt;stroke-linejoin:miter;stroke-miterlimit:22.9256;stroke-dasharray:none;stroke-opacity:1"
           id="path32" /><g
           id="g34"><g
             id="g36"
             clip-path="url(#clipPath40)"><path
               d="m 88.6297,171.4918 c 9.629,7.1048 21.8982,13.03 34.2496,15.929 11.5294,2.7063 23.1197,2.6323 33.0013,2.3154 -19.5115,-6.6668 -37.9466,-15.2397 -52.8001,-30.1576 0.9887,5.537 1.9774,11.0742 2.9661,16.6114 -5.2795,-0.4091 -11.1404,-2.0963 -17.4169,-4.6982"
               style="fill:url(#linearGradient46);fill-rule:evenodd;stroke:none"
               id="path48" /></g></g><path
           d="m 88.6297,171.4918 c 9.629,7.1048 21.8982,13.03 34.2496,15.929 11.5294,2.7063 23.1197,2.6323 33.0013,2.3154 -19.5115,-6.6668 -37.9466,-15.2397 -52.8001,-30.1576 0.9887,5.537 1.9774,11.0742 2.9661,16.6114 -5.2795,-0.4091 -11.1404,-2.0963 -17.4169,-4.6982 z"
           style="fill:none;stroke:#00adef;stroke-width:0.5;stroke-linecap:butt;stroke-linejoin:miter;stroke-miterlimit:22.9256;stroke-dasharray:none;stroke-opacity:1"
           id="path50" /><g
           id="g52"><g
             id="g54"
             clip-path="url(#clipPath58)"><path
               d="m 103.2531,153.6506 c 27.146,28.7061 88.7054,54.2083 110.6033,1.902 l 0.0482,-0.1267 c -18.1689,18.6775 -48.899,21.221 -74.3241,8.5082 -12.85,3.147 -17.7758,-5.8751 -27.6089,-13.4133 -2.9063,1.0432 -5.8124,2.0866 -8.7185,3.1298"
               style="fill:url(#linearGradient64);fill-rule:evenodd;stroke:none"
               id="path66" /></g></g><path
           d="m 103.2531,153.6506 c 27.146,28.7061 88.7054,54.2083 110.6033,1.902 l 0.0482,-0.1267 c -18.1689,18.6775 -48.899,21.221 -74.3241,8.5082 -12.85,3.147 -17.7758,-5.8751 -27.6089,-13.4133 -2.9063,1.0432 -5.8124,2.0866 -8.7185,3.1298 z"
           style="fill:none;stroke:#00adef;stroke-width:0.5;stroke-linecap:butt;stroke-linejoin:miter;stroke-miterlimit:22.9256;stroke-dasharray:none;stroke-opacity:1"
           id="path68" /><g
           id="g70"><g
             id="g72"
             clip-path="url(#clipPath76)"><path
               d="m 116.1573,149.4632 6.7595,5.6183 c 1.4178,-1.2087 3.2564,-1.9386 5.2656,-1.9386 3.2423,0 6.0403,1.9 7.3429,4.6471 1.7186,0.4085 3.4373,1.5168 6.5979,4.2704 39.5308,10.9063 80.4886,-4.5159 78.0933,-49.9411 -0.003,-0.0453 -0.005,-0.091 -0.009,-0.1361 -19.0397,35.6976 -36.4209,48.5181 -75.5138,43.9073 -9.0615,-9.8955 -15.0029,-8.212 -28.5366,-6.4273"
               style="fill:url(#linearGradient82);fill-rule:evenodd;stroke:none"
               id="path84" /></g></g><path
           d="m 116.1573,149.4632 6.7595,5.6183 c 1.4178,-1.2087 3.2564,-1.9386 5.2656,-1.9386 3.2423,0 6.0403,1.9 7.3429,4.6471 1.7186,0.4085 3.4373,1.5168 6.5979,4.2704 39.5308,10.9063 80.4886,-4.5159 78.0933,-49.9411 -0.003,-0.0453 -0.005,-0.091 -0.009,-0.1361 -19.0397,35.6976 -36.4209,48.5181 -75.5138,43.9073 -9.0615,-9.8955 -15.0029,-8.212 -28.5366,-6.4273 z"
           style="fill:none;stroke:#00adef;stroke-width:0.5;stroke-linecap:butt;stroke-linejoin:miter;stroke-miterlimit:22.9256;stroke-dasharray:none;stroke-opacity:1"
           id="path86" /><g
           id="g88"><g
             id="g90"
             clip-path="url(#clipPath94)"><path
               d="m 125.7979,144.5786 c 12.6337,0 13.6885,-1.1929 22.881,7.3269 38.7847,0.5409 55.4462,-11.5049 70.2938,-49.93 l -6e-4,-0.004 c -16.7859,19.8457 -35.7392,31.3198 -64.8261,37.4466 -10.3351,2.177 -17.2122,0.7092 -28.3481,5.1602"
               style="fill:url(#linearGradient100);fill-rule:evenodd;stroke:none"
               id="path102" /></g></g><path
           d="m 125.7979,144.5786 c 12.6337,0 13.6885,-1.1929 22.881,7.3269 38.7847,0.5409 55.4462,-11.5049 70.2938,-49.93 l -6e-4,-0.004 c -16.7859,19.8457 -35.7392,31.3198 -64.8261,37.4466 -10.3351,2.177 -17.2122,0.7092 -28.3481,5.1602 z"
           style="fill:none;stroke:#00adef;stroke-width:0.5;stroke-linecap:butt;stroke-linejoin:miter;stroke-miterlimit:22.9256;stroke-dasharray:none;stroke-opacity:1"
           id="path104" /><g
           id="g106"><g
             id="g108"
             clip-path="url(#clipPath112)"><path
               d="M 99.6599,133.7409 C 102.5796,102.5957 81.1035,66.9932 41.2563,77.8357 68.0403,54.3753 118.038,87.7924 99.6599,133.7409"
               style="fill:url(#linearGradient118);fill-rule:evenodd;stroke:none"
               id="path120" /></g></g><path
           d="M 99.6599,133.7409 C 102.5796,102.5957 81.1035,66.9932 41.2563,77.8357 68.0403,54.3753 118.038,87.7924 99.6599,133.7409 Z"
           style="fill:none;stroke:#00adef;stroke-width:0.5;stroke-linecap:butt;stroke-linejoin:miter;stroke-miterlimit:22.9256;stroke-dasharray:none;stroke-opacity:1"
           id="path122" /><g
           id="g124"><g
             id="g126"
             clip-path="url(#clipPath130)"><path
               d="m 94.3815,81.3464 c -21.3976,-19.2541 -36.536,-18.349 -63.472,-11.272 2.0149,-3.5963 4.2427,-7.0568 6.6668,-10.3651 6.236,-2.6757 20.8035,-4.0896 33.9313,-2.8007 -7.4432,-5.0045 -17.8149,-3.465 -30.8764,-1.1602 0.0562,-0.0694 0.1114,-0.1395 0.1679,-0.2086 18.4991,-22.4618 49.8852,3.8735 53.5824,25.8066"
               style="fill:url(#linearGradient136);fill-rule:evenodd;stroke:none"
               id="path138" /></g></g><path
           d="m 94.3815,81.3464 c -21.3976,-19.2541 -36.536,-18.349 -63.472,-11.272 2.0149,-3.5963 4.2427,-7.0568 6.6668,-10.3651 6.236,-2.6757 20.8035,-4.0896 33.9313,-2.8007 -7.4432,-5.0045 -17.8149,-3.465 -30.8764,-1.1602 0.0562,-0.0694 0.1114,-0.1395 0.1679,-0.2086 18.4991,-22.4618 49.8852,3.8735 53.5824,25.8066 z"
           style="fill:none;stroke:#00adef;stroke-width:0.5;stroke-linecap:butt;stroke-linejoin:miter;stroke-miterlimit:22.9256;stroke-dasharray:none;stroke-opacity:1"
           id="path140" /><g
           id="g142"><g
             id="g144"
             clip-path="url(#clipPath148)"><path
               d="m 52.7808,43.1561 c 26.087,-4.2653 37.8017,17.6317 45.4615,38.2663 7.0622,19.0247 11.9976,37.3328 7.8755,40.403 7.2323,5.9542 12.8761,5.3048 11.7312,-0.6517 C 111.2562,102.274 79.6558,39.6663 93.6473,21.5291 84.1955,23.9953 75.2814,27.7931 67.1176,32.7101 77.4612,35.9705 86.3668,44.132 88.3037,50.5689 78.7796,41.9377 66.4359,34.2717 60.3819,37.1415 c -2.6305,1.8845 -5.167,3.8923 -7.6011,6.0146"
               style="fill:url(#linearGradient154);fill-rule:evenodd;stroke:none"
               id="path156" /></g></g><path
           d="m 52.7808,43.1561 c 26.087,-4.2653 37.8017,17.6317 45.4615,38.2663 7.0622,19.0247 11.9976,37.3328 7.8755,40.403 7.2323,5.9542 12.8761,5.3048 11.7312,-0.6517 C 111.2562,102.274 79.6558,39.6663 93.6473,21.5291 84.1955,23.9953 75.2814,27.7931 67.1176,32.7101 77.4612,35.9705 86.3668,44.132 88.3037,50.5689 78.7796,41.9377 66.4359,34.2717 60.3819,37.1415 c -2.6305,1.8845 -5.167,3.8923 -7.6011,6.0146 z"
           style="fill:none;stroke:#00adef;stroke-width:0.5;stroke-linecap:butt;stroke-linejoin:miter;stroke-miterlimit:22.9256;stroke-dasharray:none;stroke-opacity:1"
           id="path158" /><g
           id="g160"><g
             id="g162"
             clip-path="url(#clipPath166)"><path
               d="m 96.9897,20.7204 c -1.6206,6.8431 -3.9478,20.365 -1.91,27.9199 4.8033,17.8063 19.586,53.0736 26.4657,72.3554 1.3878,3.8903 2.7683,8.7509 -1.9645,10.1668 -4.5782,1.3697 -12.1765,-2.471 -15.326,-0.8468 -1.1464,0.5914 -1.3567,2.431 -2.3585,4.4354 -1.0695,2.1399 -2.0761,4.373 -2.3924,5.0301 3.7655,-1.194 7.5311,0 11.2969,0 13.0142,0 13.7937,0.5652 26.7211,-2.3896 2.6045,-0.3722 5.2089,-0.7441 7.8134,-1.1163 6.2306,-0.8901 8.5592,-0.267 18.129,-2.1169 8.7925,-2.2691 15.0069,-5.004 22.9379,-9.1497 -7.9829,2.0781 -16.4358,2.0126 -24.8011,1.6637 -18.0964,-0.7549 -27.2475,4.0725 -35.9779,-15.3768 -5.8062,-12.934 -10.5543,-26.8396 -15.2839,-41.114 -3.0115,-9.0887 -8.9365,-18.1882 -9.2537,-27.5613 -0.1919,-5.6667 2.3672,-16.6249 3.9612,-23.366 -2.7216,0.3836 -5.4094,0.8714 -8.0572,1.4661"
               style="fill:url(#linearGradient172);fill-rule:evenodd;stroke:none"
               id="path174" /></g></g><path
           d="m 96.9897,20.7204 c -1.6206,6.8431 -3.9478,20.365 -1.91,27.9199 4.8033,17.8063 19.586,53.0736 26.4657,72.3554 1.3878,3.8903 2.7683,8.7509 -1.9645,10.1668 -4.5782,1.3697 -12.1765,-2.471 -15.326,-0.8468 -1.1464,0.5914 -1.3567,2.431 -2.3585,4.4354 -1.0695,2.1399 -2.0761,4.373 -2.3924,5.0301 3.7655,-1.194 7.5311,0 11.2969,0 13.0142,0 13.7937,0.5652 26.7211,-2.3896 2.6045,-0.3722 5.2089,-0.7441 7.8134,-1.1163 6.2306,-0.8901 8.5592,-0.267 18.129,-2.1169 8.7925,-2.2691 15.0069,-5.004 22.9379,-9.1497 -7.9829,2.0781 -16.4358,2.0126 -24.8011,1.6637 -18.0964,-0.7549 -27.2475,4.0725 -35.9779,-15.3768 -5.8062,-12.934 -10.5543,-26.8396 -15.2839,-41.114 -3.0115,-9.0887 -8.9365,-18.1882 -9.2537,-27.5613 -0.1919,-5.6667 2.3672,-16.6249 3.9612,-23.366 -2.7216,0.3836 -5.4094,0.8714 -8.0572,1.4661 z"
           style="fill:none;stroke:#00adef;stroke-width:0.5;stroke-linecap:butt;stroke-linejoin:miter;stroke-miterlimit:22.9256;stroke-dasharray:none;stroke-opacity:1"
           id="path176" /><g
           id="g178"><g
             id="g180"
             clip-path="url(#clipPath184)"><path
               d="m 108.3991,18.8371 c -0.2588,1.165 -0.6001,2.6339 -0.646,2.9993 -2.0024,15.9049 -1.8181,19.5256 2.8304,36.2605 4.3084,10.0066 7.6856,18.5423 11.0795,28.8938 8.9232,26.769 14.3203,34.8307 23.3708,36.6129 6.6991,1.3192 14.9366,-1.1772 30.5062,-0.1157 -27.184,-17.475 -27.9922,5.5817 -42.3165,-23.0496 -4.8546,-9.7036 -7.9149,-17.837 -9.6052,-28.6549 8.1151,5.9018 17.218,15.0959 27.5902,15.6416 10.5384,24.4298 5.5942,20.6257 27.1556,35.1938 -10.921,-19.4153 -19.6041,-27.3302 -25.2005,-50.8354 -6.308,-16.9528 -15.3712,-30.5926 -13.915,-48.8239 0.0306,-0.383 0.1783,-1.5389 0.3262,-2.6654 -2.3541,-0.4794 -4.7384,-0.8751 -7.1489,-1.1883 -0.5522,8.4158 0.1077,16.7916 2.0624,23.6591 3.3359,11.7195 9.8507,17.5827 13.4615,35.536 -10.2988,-4.5774 -16.899,-9.1917 -24.6501,-15.6385 -6.1248,-5.0939 -8.3973,-8.3835 -10.4729,-16.4446 -2.0423,-7.9322 -1.0593,-15.4191 0.7132,-24.5903 0.099,-0.5114 0.4513,-1.9647 0.7589,-3.2499 -1.9817,0.0972 -3.9487,0.2511 -5.8998,0.4595"
               style="fill:url(#linearGradient190);fill-rule:evenodd;stroke:none"
               id="path192" /></g></g><path
           d="m 108.3991,18.8371 c -0.2588,1.165 -0.6001,2.6339 -0.646,2.9993 -2.0024,15.9049 -1.8181,19.5256 2.8304,36.2605 4.3084,10.0066 7.6856,18.5423 11.0795,28.8938 8.9232,26.769 14.3203,34.8307 23.3708,36.6129 6.6991,1.3192 14.9366,-1.1772 30.5062,-0.1157 -27.184,-17.475 -27.9922,5.5817 -42.3165,-23.0496 -4.8546,-9.7036 -7.9149,-17.837 -9.6052,-28.6549 8.1151,5.9018 17.218,15.0959 27.5902,15.6416 10.5384,24.4298 5.5942,20.6257 27.1556,35.1938 -10.921,-19.4153 -19.6041,-27.3302 -25.2005,-50.8354 -6.308,-16.9528 -15.3712,-30.5926 -13.915,-48.8239 0.0306,-0.383 0.1783,-1.5389 0.3262,-2.6654 -2.3541,-0.4794 -4.7384,-0.8751 -7.1489,-1.1883 -0.5522,8.4158 0.1077,16.7916 2.0624,23.6591 3.3359,11.7195 9.8507,17.5827 13.4615,35.536 -10.2988,-4.5774 -16.899,-9.1917 -24.6501,-15.6385 -6.1248,-5.0939 -8.3973,-8.3835 -10.4729,-16.4446 -2.0423,-7.9322 -1.0593,-15.4191 0.7132,-24.5903 0.099,-0.5114 0.4513,-1.9647 0.7589,-3.2499 -1.9817,0.0972 -3.9487,0.2511 -5.8998,0.4595 z"
           style="fill:none;stroke:#00adef;stroke-width:0.5;stroke-linecap:butt;stroke-linejoin:miter;stroke-miterlimit:22.9256;stroke-dasharray:none;stroke-opacity:1"
           id="path194" /><g
           id="g196"><g
             id="g198"
             clip-path="url(#clipPath202)"><path
               d="m 118.7283,18.2619 c -3.1176,23.836 1.6325,34.7939 21.846,50.1429 -8.5623,-15.4672 -14.3801,-28.6395 -13.8563,-46.0726 0.019,-0.6353 0.0695,-2.3392 0.1233,-3.7953 -2.501,-0.1851 -5.0264,-0.2818 -7.5747,-0.2818 -0.18,0 -0.3586,0.006 -0.5383,0.0068"
               style="fill:url(#linearGradient208);fill-rule:evenodd;stroke:none"
               id="path210" /></g></g><path
           d="m 118.7283,18.2619 c -3.1176,23.836 1.6325,34.7939 21.846,50.1429 -8.5623,-15.4672 -14.3801,-28.6395 -13.8563,-46.0726 0.019,-0.6353 0.0695,-2.3392 0.1233,-3.7953 -2.501,-0.1851 -5.0264,-0.2818 -7.5747,-0.2818 -0.18,0 -0.3586,0.006 -0.5383,0.0068 z"
           style="fill:none;stroke:#00adef;stroke-width:0.5;stroke-linecap:butt;stroke-linejoin:miter;stroke-miterlimit:22.9256;stroke-dasharray:none;stroke-opacity:1"
           id="path212" /><g
           id="g214"><g
             id="g216"
             clip-path="url(#clipPath220)"><path
               d="m 142.7151,20.9908 c 1.3529,7.0104 2.4168,16.4909 3.8877,21.3968 3.9152,13.0572 9.9983,19.4051 14.3815,39.3891 3.9195,15.1526 13.9023,22.8076 17.8144,36.9317 2.1724,-0.5068 4.9921,-1.2296 7.1645,-1.7365 -1.4969,-6.4916 0.0848,-13.1385 2.3457,-20.6407 2.5019,-8.3001 2.6362,-12.6227 2.1725,-21.0475 -0.1942,-3.0099 -1.8513,-8.8288 -1.9318,-12.6601 -0.0811,-3.8628 2.2734,-5.1821 5.5046,-1.7088 4.5706,4.9133 10.9417,29.8684 10.3581,37.6016 -0.6387,8.4645 -8.1769,21.3877 -22.3079,22.5159 12.6712,3.0586 20.4228,-5.9848 26.1808,-15.6217 6.7088,-11.2278 2.3738,-31.474 -8.2803,-46.9817 -2.9928,-3.9521 -6.2696,-7.6768 -9.799,-11.1453 -4.6199,-4.0479 -9.8142,-7.1413 -15.4049,-8.7449 3.897,8.1332 4.3942,14.04 6.548,22.7982 0.5684,5.1148 3.9107,21.8872 0.9451,25.0348 -3.1731,3.3678 -10.5307,0.174 -13.4133,-5.1994 -2.1002,-4.7256 -3.6062,-12.0662 -6.3153,-18.9087 -2.9812,-7.5306 -7.1572,-14.6557 -9.1207,-21.5793 -1.5806,-5.5721 -1.8369,-11.8931 -3.3755,-17.6503 -2.4135,-0.7701 -4.8657,-1.4527 -7.3542,-2.0432"
               style="fill:url(#linearGradient226);fill-rule:evenodd;stroke:none"
               id="path228" /></g></g><path
           d="m 142.7151,20.9908 c 1.3529,7.0104 2.4168,16.4909 3.8877,21.3968 3.9152,13.0572 9.9983,19.4051 14.3815,39.3891 3.9195,15.1526 13.9023,22.8076 17.8144,36.9317 2.1724,-0.5068 4.9921,-1.2296 7.1645,-1.7365 -1.4969,-6.4916 0.0848,-13.1385 2.3457,-20.6407 2.5019,-8.3001 2.6362,-12.6227 2.1725,-21.0475 -0.1942,-3.0099 -1.8513,-8.8288 -1.9318,-12.6601 -0.0811,-3.8628 2.2734,-5.1821 5.5046,-1.7088 4.5706,4.9133 10.9417,29.8684 10.3581,37.6016 -0.6387,8.4645 -8.1769,21.3877 -22.3079,22.5159 12.6712,3.0586 20.4228,-5.9848 26.1808,-15.6217 6.7088,-11.2278 2.3738,-31.474 -8.2803,-46.9817 -2.9928,-3.9521 -6.2696,-7.6768 -9.799,-11.1453 -4.6199,-4.0479 -9.8142,-7.1413 -15.4049,-8.7449 3.897,8.1332 4.3942,14.04 6.548,22.7982 0.5684,5.1148 3.9107,21.8872 0.9451,25.0348 -3.1731,3.3678 -10.5307,0.174 -13.4133,-5.1994 -2.1002,-4.7256 -3.6062,-12.0662 -6.3153,-18.9087 -2.9812,-7.5306 -7.1572,-14.6557 -9.1207,-21.5793 -1.5806,-5.5721 -1.8369,-11.8931 -3.3755,-17.6503 -2.4135,-0.7701 -4.8657,-1.4527 -7.3542,-2.0432 z"
           style="fill:none;stroke:#00adef;stroke-width:0.5;stroke-linecap:butt;stroke-linejoin:miter;stroke-miterlimit:22.9256;stroke-dasharray:none;stroke-opacity:1"
           id="path230" /><g
           id="g232"><g
             id="g234"
             clip-path="url(#clipPath238)"><path
               d="m 153.0995,24.0557 c 5.3229,6.2537 5.5176,21.2113 11.1671,30.9685 3.1994,5.5252 5.4161,13.1181 7.5795,18.3719 0.47,1.1412 3.7489,12.1203 5.8627,6.4678 3.2935,-8.8064 -1.7451,-21.8064 -5.6577,-31.7909 -1.8337,-4.6791 -6.092,-12.416 2.6833,-13.2712 -6.7011,-4.3982 -13.9541,-8.0226 -21.6349,-10.7461"
               style="fill:url(#linearGradient244);fill-rule:evenodd;stroke:none"
               id="path246" /></g></g><path
           d="m 153.0995,24.0557 c 5.3229,6.2537 5.5176,21.2113 11.1671,30.9685 3.1994,5.5252 5.4161,13.1181 7.5795,18.3719 0.47,1.1412 3.7489,12.1203 5.8627,6.4678 3.2935,-8.8064 -1.7451,-21.8064 -5.6577,-31.7909 -1.8337,-4.6791 -6.092,-12.416 2.6833,-13.2712 -6.7011,-4.3982 -13.9541,-8.0226 -21.6349,-10.7461 z"
           style="fill:none;stroke:#00adef;stroke-width:0.5;stroke-linecap:butt;stroke-linejoin:miter;stroke-miterlimit:22.9256;stroke-dasharray:none;stroke-opacity:1"
           id="path248" /><g
           id="g250"><g
             id="g252"
             clip-path="url(#clipPath256)"><path
               d="m 135.6137,164.5486 c 0.4442,-1.004 0.6914,-2.1143 0.6914,-3.2828 0,-4.4861 -3.6366,-8.1229 -8.1227,-8.1229 -3.3619,0 -6.2467,2.0426 -7.4815,4.9544 0.358,0.3135 0.7149,0.621 1.0718,0.9209 0.9278,-2.6458 3.4469,-4.5433 6.4097,-4.5433 3.7505,0 6.7907,3.0404 6.7907,6.7909 0,1.1996 -0.3116,2.3264 -0.8575,3.3047 0.4867,0.0138 0.9856,0.007 1.4981,-0.0219"
               style="fill:url(#linearGradient262);fill-rule:evenodd;stroke:none"
               id="path264" /></g></g><path
           d="m 135.6137,164.5486 c 0.4442,-1.004 0.6914,-2.1143 0.6914,-3.2828 0,-4.4861 -3.6366,-8.1229 -8.1227,-8.1229 -3.3619,0 -6.2467,2.0426 -7.4815,4.9544 0.358,0.3135 0.7149,0.621 1.0718,0.9209 0.9278,-2.6458 3.4469,-4.5433 6.4097,-4.5433 3.7505,0 6.7907,3.0404 6.7907,6.7909 0,1.1996 -0.3116,2.3264 -0.8575,3.3047 0.4867,0.0138 0.9856,0.007 1.4981,-0.0219 z"
           style="fill:none;stroke:#00adef;stroke-width:0.5;stroke-linecap:butt;stroke-linejoin:miter;stroke-miterlimit:22.9256;stroke-dasharray:none;stroke-opacity:1"
           id="path266" /><g
           id="g268"><g
             id="g270"
             clip-path="url(#clipPath274)"><path
               d="m 132.2084,164.4032 c 0.6753,-0.8657 1.0778,-1.9545 1.0778,-3.1374 0,-2.819 -2.285,-5.104 -5.1038,-5.104 -2.4432,0 -4.485,1.7166 -4.9861,4.0093 2.7442,2.1268 5.5757,3.7213 9.0121,4.2321"
               style="fill:url(#linearGradient280);fill-rule:evenodd;stroke:none"
               id="path282" /></g></g><path
           d="m 132.2084,164.4032 c 0.6753,-0.8657 1.0778,-1.9545 1.0778,-3.1374 0,-2.819 -2.285,-5.104 -5.1038,-5.104 -2.4432,0 -4.485,1.7166 -4.9861,4.0093 2.7442,2.1268 5.5757,3.7213 9.0121,4.2321 z"
           style="fill:none;stroke:#00adef;stroke-width:0.5;stroke-linecap:butt;stroke-linejoin:miter;stroke-miterlimit:22.9256;stroke-dasharray:none;stroke-opacity:1"
           id="path284" /></g><g
         id="g286"><g
           id="g288"
           clip-path="url(#clipPath292)"><path
             d="m 119.2666,220.6902 c 33.8663,0 63.8441,-16.6357 82.218,-42.1778 -6.1568,5.2177 -13.2256,8.1578 -20.7394,9.3104 -16.2878,14.6596 -37.8397,23.5845 -61.4786,23.5845 -50.7742,0 -91.9347,-41.1605 -91.9347,-91.9346 0,-17.4564 4.8654,-33.776 13.3135,-47.6776 -3.7168,0.6976 -7.7193,1.6463 -12.115,2.7887 -6.7056,13.5283 -10.4814,28.7665 -10.4814,44.8889 0,55.9009 45.3167,101.2175 101.2176,101.2175"
             style="fill:url(#linearGradient298);fill-rule:evenodd;stroke:none"
             id="path300" /></g></g><path
         d="m 119.2666,220.6902 c 33.8663,0 63.8441,-16.6357 82.218,-42.1778 -6.1568,5.2177 -13.2256,8.1578 -20.7394,9.3104 -16.2878,14.6596 -37.8397,23.5845 -61.4786,23.5845 -50.7742,0 -91.9347,-41.1605 -91.9347,-91.9346 0,-17.4564 4.8654,-33.776 13.3135,-47.6776 -3.7168,0.6976 -7.7193,1.6463 -12.115,2.7887 -6.7056,13.5283 -10.4814,28.7665 -10.4814,44.8889 0,55.9009 45.3167,101.2175 101.2176,101.2175 z"
         style="fill:none;stroke:#00adef;stroke-width:0.5;stroke-linecap:butt;stroke-linejoin:miter;stroke-miterlimit:22.9256;stroke-dasharray:none;stroke-opacity:1"
         id="path302" /></g></g></svg>
